<svg width="16" height="14" viewBox="0 0 16 14" fill="none" xmlns="http://www.w3.org/2000/svg">
<path d="M3.14766 0.90332H6.79652V1.97766H3.36253V5.34398H2.28819V1.76279C2.28819 1.28812 2.67299 0.90332 3.14766 0.90332Z" fill="#9C9EA3"/>
<path d="M9.9301 0.90332V1.97766H13.3641V5.34398H14.4384V1.76279C14.4384 1.28812 14.0536 0.90332 13.5789 0.90332H9.9301Z" fill="#9C9EA3"/>
<path d="M9.9301 11.9792H13.3641V8.47756H14.4384V12.1941C14.4384 12.6687 14.0536 13.0535 13.5789 13.0535H9.9301V11.9792Z" fill="#9C9EA3"/>
<path d="M3.36253 11.9792V8.47756H2.28819V12.1941C2.28819 12.6687 2.67299 13.0535 3.14766 13.0535H6.79652V11.9792H3.36253Z" fill="#9C9EA3"/>
<path d="M1.33592 6.44696C1.07489 6.44696 0.863281 6.65857 0.863281 6.9196C0.863281 7.18064 1.07489 7.39225 1.33592 7.39225H15.3906C15.6517 7.39225 15.8633 7.18064 15.8633 6.9196C15.8633 6.65857 15.6517 6.44696 15.3906 6.44696H1.33592Z" fill="#9C9EA3"/>
</svg>
